<?xml version="1.0" encoding="UTF-8" standalone="no"?>
<!-- Created with Inkscape (http://www.inkscape.org/) -->

<svg
   xmlns:dc="http://purl.org/dc/elements/1.1/"
   xmlns:cc="http://creativecommons.org/ns#"
   xmlns:rdf="http://www.w3.org/1999/02/22-rdf-syntax-ns#"
   xmlns:svg="http://www.w3.org/2000/svg"
   xmlns="http://www.w3.org/2000/svg"
   xmlns:sodipodi="http://sodipodi.sourceforge.net/DTD/sodipodi-0.dtd"
   xmlns:inkscape="http://www.inkscape.org/namespaces/inkscape"
   width="500mm"
   height="500mm"
   viewBox="0 0 500 500"
   version="1.1"
   id="svg8"
   inkscape:version="0.92.1 r15371"
   sodipodi:docname="flamingo_crown_hollyn.svg">
  <defs
     id="defs2">
    <inkscape:path-effect
       effect="spiro"
       id="path-effect11755"
       is_visible="true" />
    <inkscape:path-effect
       effect="taper_stroke"
       id="path-effect12045"
       is_visible="true"
       stroke_width="0.26458332"
       attach_start="0.031794078"
       end_offset="0.65021"
       smoothing="0.5"
       jointype="extrapolated"
       miter_limit="100" />
    <inkscape:path-effect
       miter_limit="100"
       jointype="extrapolated"
       smoothing="0.5"
       end_offset="0.65021"
       attach_start="0.031794078"
       stroke_width="0.26458332"
       is_visible="true"
       id="path-effect12049"
       effect="taper_stroke" />
    <inkscape:path-effect
       miter_limit="100"
       jointype="extrapolated"
       smoothing="0.5"
       end_offset="0.65021"
       attach_start="0.031794078"
       stroke_width="0.26458332"
       is_visible="true"
       id="path-effect12053"
       effect="taper_stroke" />
    <inkscape:path-effect
       effect="taper_stroke"
       id="path-effect12057"
       is_visible="true"
       stroke_width="0.26458332"
       attach_start="0.031794078"
       end_offset="0.65021"
       smoothing="0.5"
       jointype="extrapolated"
       miter_limit="100" />
  </defs>
  <sodipodi:namedview
     id="base"
     pagecolor="#ffffff"
     bordercolor="#666666"
     borderopacity="1.0"
     inkscape:pageopacity="0.0"
     inkscape:pageshadow="2"
     inkscape:zoom="0.24748737"
     inkscape:cx="1098.0342"
     inkscape:cy="906.45461"
     inkscape:document-units="mm"
     inkscape:current-layer="layer1"
     showgrid="false"
     inkscape:window-width="1366"
     inkscape:window-height="715"
     inkscape:window-x="-8"
     inkscape:window-y="-8"
     inkscape:window-maximized="1" />
  <metadata
     id="metadata5">
    <rdf:RDF>
      <cc:Work
         rdf:about="">
        <dc:format>image/svg+xml</dc:format>
        <dc:type
           rdf:resource="http://purl.org/dc/dcmitype/StillImage" />
        <dc:title />
      </cc:Work>
    </rdf:RDF>
  </metadata>
  <g
     inkscape:label="Layer 1"
     inkscape:groupmode="layer"
     id="layer1"
     transform="translate(0,203)">
    <g
       id="g4721"
       transform="matrix(0.98524899,0,0,0.98524899,12.832765,0.69351036)">
      <path
         style="fill:#fcc5c1;fill-opacity:1;stroke-width:6.76039457"
         d="m 1264.082,183.83398 c -1.6775,4.61786 -5.4311,7.36399 -13.8789,8.74024 -23.9238,3.25274 -45.6159,8.44701 -79.0508,18.91797 -31.0029,9.72873 -47.0214,15.83344 -68.7343,27.30469 -12.8475,8.10068 -20.2136,9.52729 -26.0215,7.01171 -22.8225,20.83627 -40.3556,47.08472 -49.5957,79.0293 -9.9611,34.51835 -14.7578,98.6219 7.1894,156.00195 20.4061,62.75467 34.6134,68.08089 61.4317,125.91602 19.7647,112.76766 -73.3569,146.43475 -201.78909,111.83984 -61.47571,6.25833 -70.8387,9.04653 -108.8457,32.29297 -49.00101,29.96917 -177.31122,88.824 -213.39649,150.69922 -16.25709,27.87762 -30.87527,45.05209 -39.40234,46.28906 -64.76617,9.39022 -60.44801,6.88688 -59.90625,34.92383 0.31106,15.44024 19.41509,48.47572 26.65039,57.39652 15.6361,19.2751 -41.63486,38.2454 -54.60351,57.414 -13.80375,20.4037 -33.80538,33.3197 -54.90625,35.4668 -25.64657,2.6115 -20.60043,33.9798 9.21679,57.2344 21.02782,16.4005 26.43925,17.3158 75.75196,12.6523 49.22332,-4.6541 98.60879,-23.2944 113.32421,-8.0527 19.48385,20.1748 126.9433,25.2639 157.20704,10.7031 19.89928,-9.5495 29.4629,-13.3904 47.85546,-2.9726 1.80318,1.022 4.49752,2.1639 6.88868,3.2715 3.22167,1.6633 6.39564,3.3304 9.9414,4.9804 35.90064,18.2671 36.50367,19.097 -1.76953,47.1953 -27.84457,16.9302 -55.78259,35.7068 -85.41015,57.4551 -28.78931,21.7798 -41.64248,70.1604 -9.98047,84.5879 9.47025,4.3122 22.40613,7.7956 28.73828,7.6914 6.33218,-0.078 56.37405,15.851 111.21679,35.4258 l 71.6543,26.709 4.03516,35.6269 c 0.7889,31.6422 0.41546,91.7117 -0.82422,133.4883 -1.23969,41.7758 -1.88314,102.3056 2.59375,134.0508 4.26043,30.1895 8.8624,59.9856 32.91406,66.9551 l 51.71293,25.664 c 109.9571,42.1889 80.1001,3.0715 118.2851,-12.1484 22.3825,-8.508 28.6811,-20.9481 14.5801,-28.8398 -18.9685,-11.9232 -38.4536,-32.4931 -108.4844,-33.8789 -26.2757,-3.486 -40.45202,-10.7764 -39.86521,-57.6563 1.90031,-88.7377 -0.59005,-231.8591 7.08981,-229.082 28.48,8.8395 77.3639,34.4634 91.0938,77.3379 11.4965,24.8572 47.7096,20.5125 56.6133,33.8398 2.5066,4.056 11.7474,7.3668 20.5644,7.3691 11.4783,0 16.6331,-4.3323 18.1953,-15.2207 1.3874,-9.7757 7.5962,-15.9864 17.3711,-17.373 24.8903,-3.5325 17.8169,-17.1126 -32.3535,-62.2539 -61.8912,-55.6884 -66.6331,-58.8371 -116.418,-76.3945 -23.2009,-8.1824 -46.1267,-17.374 -50.9297,-20.4239 -6.5664,-4.173 -8.3033,-28.0612 -7.0683,-96.2558 5.3839,-49.411 -6.22132,-93.3179 49.9844,-98.3633 11.1631,-0.03 34.2022,-7.0166 45.0859,-7.9531 178.8136,-38.9755 302.3605,-194.9139 316.2793,-317.20316 7.5454,-62.67383 -0.079,-126.74737 -22.875,-186.26367 -25.5296,-66.6226 -95.1195,-117.36627 -132.4238,-163.51172 -47.4198,-58.659 -89.0315,-108.74408 -105.0508,-158.00977 -5.0389,-14.70264 -6.6378,-27.66248 -3.7344,-42.49414 8.0884,-22.15789 41.2979,-22.02437 53.2988,7.00977 19.4819,43.95947 24.2377,46.95244 52.2735,68.54101 14.7105,11.32736 25.666,20.77971 34.7187,24.91016 -2.6829,-5.43762 -4.3756,-9.51106 -4.4629,-11.41797 -0.021,-0.45693 -0.012,-0.90292 0.01,-1.34375 0.017,-0.37143 0.056,-0.73362 0.1015,-1.09375 0.01,-0.0828 0.015,-0.16781 0.027,-0.25 0.048,-0.33248 0.1152,-0.65764 0.1875,-0.98047 0.025,-0.11143 0.048,-0.22369 0.076,-0.33398 0.074,-0.29498 0.1615,-0.58426 0.2559,-0.87109 0.045,-0.13622 0.091,-0.27186 0.1406,-0.40625 0.1017,-0.27725 0.2116,-0.55078 0.332,-0.82032 0.054,-0.12011 0.1107,-0.23883 0.168,-0.35742 0.1356,-0.28035 0.2776,-0.55818 0.4336,-0.83008 0.054,-0.095 0.115,-0.18731 0.1719,-0.28125 0.1713,-0.28278 0.3458,-0.56432 0.539,-0.83789 0.046,-0.0655 0.099,-0.12835 0.1465,-0.19336 0.9438,-1.2903 2.1297,-2.47823 3.5391,-3.5664 0.056,-0.0434 0.1092,-0.0878 0.166,-0.13086 0.2999,-0.22705 0.6144,-0.44762 0.9336,-0.66602 0.1125,-0.077 0.223,-0.1545 0.3379,-0.23047 0.3084,-0.20381 0.628,-0.40343 0.9531,-0.59961 0.1344,-0.0811 0.2691,-0.16235 0.4063,-0.24218 0.3311,-0.19257 0.6702,-0.38134 1.0175,-0.56641 0.1346,-0.0717 0.2713,-0.14229 0.4082,-0.21289 0.3536,-0.18219 0.7109,-0.36231 1.0801,-0.53711 0.171,-0.081 0.3473,-0.15887 0.5215,-0.23828 0.3557,-0.162 0.7128,-0.32303 1.082,-0.47852 0.177,-0.0746 0.3611,-0.14567 0.5411,-0.21875 0.3781,-0.15343 0.755,-0.30619 1.1464,-0.45312 0.1272,-0.0478 0.2602,-0.0935 0.3887,-0.14063 0.8915,-0.32633 1.8157,-0.63572 2.7715,-0.92968 0.136,-0.0419 0.267,-0.0877 0.4043,-0.12891 0.3775,-0.11326 0.7674,-0.21972 1.1543,-0.32813 0.275,-0.0771 0.5465,-0.15578 0.8262,-0.23046 0.389,-0.1038 0.7876,-0.20166 1.1855,-0.30079 0.2898,-0.0722 0.5787,-0.14505 0.8731,-0.21484 0.3652,-0.0865 0.7352,-0.17116 1.1074,-0.25391 0.2957,-0.0658 0.5945,-0.1299 0.8945,-0.19335 1.1895,-0.25134 2.4101,-0.48429 3.6641,-0.69922 0.2061,-0.0354 0.4152,-0.0691 0.623,-0.10352 1.2788,-0.21146 2.5827,-0.40857 3.9219,-0.58398 0.1737,-0.0228 0.3527,-0.0423 0.5273,-0.0645 0.9471,-0.12012 1.92,-0.22338 2.8946,-0.32617 1.0812,-0.11427 2.1801,-0.21715 3.2929,-0.31055 0.6105,-0.0511 1.2184,-0.10348 1.8379,-0.14843 1.2077,-0.0879 2.4361,-0.15974 3.6758,-0.22461 0.5643,-0.0294 1.121,-0.0631 1.6914,-0.0879 1.5493,-0.0675 3.1234,-0.11463 4.7149,-0.14844 0.2442,-0.005 0.4814,-0.0152 0.7265,-0.0195 3.3405,-0.0601 6.7669,-0.0456 10.252,0.0332 0.1331,0.003 0.2632,0.003 0.3965,0.006 0.01,1.9e-4 0.015,-1.9e-4 0.023,0 1.1793,0.0284 2.3706,0.0718 3.5625,0.11524 0.5355,0.0196 1.0677,0.036 1.6055,0.0586 1.2279,0.0514 2.4629,0.11505 3.7011,0.18164 0.4299,0.0232 0.8582,0.0434 1.2891,0.0684 1.3427,0.0776 2.6895,0.16505 4.041,0.25976 0.3151,0.0221 0.6299,0.0453 0.9453,0.0684 1.4142,0.10307 2.8298,0.21301 4.25,0.33399 0.2448,0.0209 0.4895,0.045 0.7344,0.0664 1.5077,0.13158 3.0149,0.26903 4.5254,0.41993 6.6739,0.66673 13.3519,1.51873 19.8945,2.52343 1.567,0.24064 3.1213,0.49031 4.67,0.74805 0.069,0.0114 0.1384,0.0217 0.207,0.0332 0.035,0.006 0.07,0.0117 0.1054,0.0176 1.4931,0.24978 2.9735,0.5086 4.4454,0.77344 0.1786,0.0321 0.3568,0.0633 0.5351,0.0957 1.4293,0.25939 2.8466,0.52601 4.252,0.79883 0.1804,0.035 0.359,0.0702 0.539,0.10547 1.4451,0.28291 2.8775,0.57089 4.293,0.86719 3.0479,0.63801 6.0368,1.2999 8.9199,1.99414 1.3369,0.39251 2.6274,1.16186 3.8555,2.25 1.4962,-0.84719 2.8257,-2.00354 4.0234,-3.44532 7.402,-8.92852 9.6553,-28.73805 13.6289,-52.46289 10.8787,-65.14426 3.6886,-129.3757 -54.2422,-163.95312 -21.1552,-12.62744 -44.8552,-22.40347 -69.4863,-29.2793 -17.5074,-3.89403 -35.9879,-6.13161 -54.8379,-6.67383 z m 101.9219,96.74414 a 5.1416256,5.1416256 0 0 1 5.3145,6.04688 l -4.1289,24.93555 c 5.2458,0.94204 10.5443,2.38219 15.8886,4.34765 l 6.961,-25.49023 a 5.1416256,5.1416256 0 0 1 4.7324,-3.8457 5.1416256,5.1416256 0 0 1 5.1894,6.55664 l -8.416,30.81836 a 5.1416256,5.1416256 0 0 1 -6.998,3.36718 c -32.765,-14.12451 -60.8989,-8.35245 -87.8594,18.25391 a 5.1416256,5.1416256 0 0 1 -7.2402,-0.0215 l -23.0547,-22.98829 a 5.1416256,5.1416256 0 1 1 7.2558,-7.27734 l 19.8946,19.83398 c 3.6388,-3.29764 7.3522,-6.26196 11.1308,-8.91211 l -17.08,-21.4707 a 5.1416256,5.1416256 0 0 1 4.0449,-8.40039 5.1416256,5.1416256 0 0 1 4.0019,2 l 17.7989,22.37305 c 5.2839,-2.93171 10.6845,-5.25289 16.1855,-6.95703 l -5.75,-26.45313 a 5.1416256,5.1416256 0 0 1 4.8574,-6.29492 5.1416256,5.1416256 0 0 1 5.1895,4.11719 l 5.7031,26.23047 c 5.6913,-0.97243 11.4767,-1.30326 17.3418,-0.98633 l 4.209,-25.41992 a 5.1416256,5.1416256 0 0 1 4.8281,-4.36329 z M 910.27148,1275.3945 c 0.31683,-0.01 0.62859,-2e-4 0.93555,0.01 14.73566,0.5985 18.11286,25.1971 18.25391,48.7793 -0.81612,28.03 7.45105,62.5088 -4.75977,71.8555 -5.76593,4.4147 -17.82965,1.0334 -34.40039,-7.25 -76.34509,-31.3507 -91.25586,-38.5696 -91.25586,-44.1602 0.002,-3.0818 12.91594,-12.1535 28.71875,-20.1641 15.80323,-8.0103 30.27247,-16.8668 32.13086,-19.6796 1.8576,-2.8136 16.48342,-12.3159 32.49414,-21.0879 7.25786,-5.6748 13.13038,-8.1756 17.88281,-8.3008 z"
         transform="matrix(0.26458333,0,0,0.26458333,0,-203)"
         id="path11474"
         inkscape:connector-curvature="0" />
      <path
         inkscape:connector-curvature="0"
         id="path11476"
         transform="matrix(0.26458333,0,0,0.26458333,0,-203)"
         d="m 1366.0039,280.57812 a 5.1416257,5.1416257 0 0 0 -4.8281,4.36329 l -4.209,25.41992 c -5.8651,-0.31693 -11.6505,0.0139 -17.3418,0.98633 l -5.7031,-26.23047 A 5.1416257,5.1416257 0 0 0 1328.7324,281 a 5.1416257,5.1416257 0 0 0 -4.8574,6.29492 l 5.75,26.45313 c -5.501,1.70414 -10.9016,4.02532 -16.1855,6.95703 l -17.7989,-22.37305 a 5.1416257,5.1416257 0 0 0 -4.0019,-2 5.1416257,5.1416257 0 0 0 -4.0449,8.40039 l 17.08,21.4707 c -3.7786,2.65015 -7.492,5.61447 -11.1308,8.91211 l -19.8946,-19.83398 a 5.1416257,5.1416257 0 1 0 -7.2558,7.27734 l 23.0547,22.98829 a 5.1416257,5.1416257 0 0 0 7.2402,0.0215 c 26.9605,-26.60636 55.0944,-32.37842 87.8594,-18.25391 a 5.1416257,5.1416257 0 0 0 6.998,-3.36718 l 8.416,-30.81836 a 5.1416257,5.1416257 0 0 0 -5.1894,-6.55664 5.1416257,5.1416257 0 0 0 -4.7324,3.8457 l -6.961,25.49023 c -5.3443,-1.96546 -10.6428,-3.40561 -15.8886,-4.34765 l 4.1289,-24.93555 a 5.1416257,5.1416257 0 0 0 -5.3145,-6.04688 z m -22.1699,147.2168 c -32.4048,-0.20822 -58.5315,5.74215 -57.7774,22.21289 0.4062,8.87879 34.186,62.76479 52.5743,98.93555 v 0.002 c 15.2743,30.21906 11.6297,72.97689 61.0742,66.83399 35.1716,-8.36659 19.4119,-23.11194 33.9004,-46.61914 16.512,-26.78871 8.685,-125.56047 -12.4629,-131.75196 -23.1037,-5.56325 -52.1049,-9.45133 -77.3086,-9.61328 z"
         style="color:#000000;font-style:normal;font-variant:normal;font-weight:normal;font-stretch:normal;font-size:medium;line-height:normal;font-family:sans-serif;font-variant-ligatures:normal;font-variant-position:normal;font-variant-caps:normal;font-variant-numeric:normal;font-variant-alternates:normal;font-feature-settings:normal;text-indent:0;text-align:start;text-decoration:none;text-decoration-line:none;text-decoration-style:solid;text-decoration-color:#000000;letter-spacing:normal;word-spacing:normal;text-transform:none;writing-mode:lr-tb;direction:ltr;text-orientation:mixed;dominant-baseline:auto;baseline-shift:baseline;text-anchor:start;white-space:normal;shape-padding:0;clip-rule:nonzero;display:inline;overflow:visible;visibility:visible;opacity:1;isolation:auto;mix-blend-mode:normal;color-interpolation:sRGB;color-interpolation-filters:linearRGB;solid-color:#000000;solid-opacity:1;vector-effect:none;fill:#000000;fill-opacity:1;fill-rule:nonzero;stroke:none;stroke-width:10.2822237px;stroke-linecap:round;stroke-linejoin:round;stroke-miterlimit:4;stroke-dasharray:none;stroke-dashoffset:0;stroke-opacity:1;color-rendering:auto;image-rendering:auto;shape-rendering:auto;text-rendering:auto;enable-background:accumulate" />
      <path
         inkscape:connector-curvature="0"
         id="path11486"
         d="m 1105.4785,5.0332031 c -1.497,-0.00709 -3.221,0.4081102 -5.7402,1.1953125 -5.7539,1.8102047 -6.9904,2.8450561 -8.9219,7.4882814 -1.2978,3.151294 -1.6934,7.082779 -0.9473,9.503906 1.5938,5.064491 6.9223,10.639717 10.3926,10.833985 2.2,0.130582 2.8374,1.489374 4.2559,8.738281 4.0735,20.92989 2.2305,53.233595 -3.5137,61.640621 -3.7334,5.44846 -11.165,7.82437 -18.6953,5.95899 -18.1237,-4.48505 -31.4704,-13.577261 -31.0313,-21.128908 0.4582,-7.83651 -2.3882,-13.669757 -8.1347,-16.666016 -8.1921,-4.270526 -16.9037,-0.0926 -19.0528,9.138672 -2.2718,9.759761 4.1608,17.874216 14.9512,18.857422 l 5.3379,0.48242 3.0586,9.69141 c 4.4575,14.18113 4.9297,23.26676 1.5293,29.45898 -5.497,10.01787 -18.8848,11.33783 -43.4922,4.29102 -7.80736,-2.22834 -8.52199,-2.79434 -9.38085,-7.30078 -2.56993,-13.46177 -19.54018,-16.81556 -25.66211,-5.07227 -1.29812,2.53183 -1.24278,5.46448 0.15625,9.92969 2.57692,8.19054 10.07817,12.67376 17.35742,10.39648 l 4.72461,-1.48437 25.13278,28.99219 c 13.8228,15.94465 33.2222,38.65001 43.1133,50.45703 l -0.051,0.0156 c 12.3072,14.67663 16.6015,24.07822 41.5528,8.34571 21.7129,-11.47125 37.7314,-17.57596 68.7343,-27.30469 33.4349,-10.47096 55.127,-15.66523 79.0508,-18.91797 18.2725,-2.97683 14.6115,-12.3408 15.3887,-33.26563 1.8362,-32.5488 4.1057,-59.701034 7.1758,-85.792965 l 1.9512,-16.589844 5.83,-2.728515 c 7.4926,-3.509216 9.6176,-8.521036 7.041,-16.681641 -3.8084,-12.102009 -17.5512,-15.266876 -25.2851,-5.818359 -3.7385,4.548019 -4.1191,10.629074 -1.0957,16.716796 2.2734,4.576026 2.1301,5.052133 -3.8399,12.802735 -13.3735,17.382576 -22.9839,24.490012 -31.4453,23.3125 -7.4789,-1.033739 -11.8822,-5.636213 -17.8926,-18.628906 -5.872,-12.692334 -6.7283,-17.975253 -3.3007,-20.376953 1.2937,-0.907012 3.5014,-3.670905 4.9121,-6.138672 5.4387,-9.530117 -4.3106,-21.270259 -16.1992,-19.517578 -4.8022,0.711155 -5.7908,1.527033 -8.7598,7.220703 -3.6713,7.067792 -3.284,10.192298 2.1602,16.646484 3.3732,3.99772 3.5483,4.712975 2.3164,9.492187 -1.4539,5.646275 -9.0418,20.128693 -13.3418,25.462891 -3.833,4.755137 -13.1352,7.362112 -18.7286,5.244141 -8.7937,-3.326967 -20.1052,-16.243089 -37.3203,-42.609375 -6.0387,-9.288794 -6.069,-9.386794 -4.3125,-13.183594 4.44,-9.612888 3.129,-16.269104 -4.1172,-20.8769531 -2.3866,-1.5127016 -3.9366,-2.2213536 -5.8613,-2.2304688 z"
         style="fill:#aa8800;stroke-width:1.45141232"
         sodipodi:nodetypes="cccccccccccccccccccccccccccccccccccccccccccccccccc"
         transform="matrix(0.26458333,0,0,0.26458333,0,-203)" />
    </g>
  </g>
</svg>
